<svg width="170" height="37" viewBox="0 0 170 37" fill="none" xmlns="http://www.w3.org/2000/svg">
<path d="M18.3873 6.30477C18.2046 6.2756 18.226 6.00635 18.4109 6.00635H29.6568C29.8641 6.00635 30.0322 6.17441 30.0322 6.38172V17.6276C30.0322 17.8125 29.7629 17.8339 29.7337 17.6512L28.257 8.40447C28.2058 8.08397 27.9545 7.8327 27.634 7.7815L18.3873 6.30477Z" fill="white" stroke="white" stroke-width="1.0296" stroke-linecap="round"/>
<path d="M4.87261 19.8177C4.68998 19.7885 4.71135 19.5193 4.89629 19.5193H16.1421C16.3494 19.5193 16.5175 19.6874 16.5175 19.8947V31.1405C16.5175 31.3254 16.2483 31.3468 16.2191 31.1642L14.7423 21.9174C14.6911 21.5969 14.4399 21.3456 14.1194 21.2944L4.87261 19.8177Z" fill="#7D67FF" stroke="#7D67FF" stroke-width="1.0296" stroke-linecap="round"/>
<path d="M11.6265 13.0599C11.4439 13.0307 11.4653 12.7615 11.6502 12.7615H22.896C23.1033 12.7615 23.2714 12.9296 23.2714 13.1368V24.3827C23.2714 24.5676 23.0022 24.589 22.973 24.4064L21.5821 15.6968C21.4797 15.0558 20.977 14.5532 20.3361 14.4508L11.6265 13.0599Z" fill="#9A89FF" stroke="#9A89FF" stroke-width="1.0296" stroke-linecap="round"/>
<path d="M55.2281 26.8061C53.5481 26.8061 52.1001 26.4461 50.8841 25.7261C49.6841 24.9901 48.7561 23.9741 48.1001 22.6781C47.4601 21.3661 47.1401 19.8541 47.1401 18.1421C47.1401 16.4301 47.4601 14.9181 48.1001 13.6061C48.7561 12.2941 49.6841 11.2701 50.8841 10.5341C52.1001 9.79807 53.5481 9.43007 55.2281 9.43007C57.2601 9.43007 58.9241 9.93407 60.2201 10.9421C61.5161 11.9501 62.3241 13.3741 62.6441 15.2141H59.1161C58.9081 14.3181 58.4681 13.6221 57.7961 13.1261C57.1401 12.6141 56.2761 12.3581 55.2041 12.3581C54.2121 12.3581 53.3561 12.5981 52.6361 13.0781C51.9321 13.5421 51.3881 14.2061 51.0041 15.0701C50.6201 15.9181 50.4281 16.9421 50.4281 18.1421C50.4281 19.3261 50.6201 20.3501 51.0041 21.2141C51.3881 22.0781 51.9321 22.7421 52.6361 23.2061C53.3561 23.6701 54.2121 23.9021 55.2041 23.9021C56.2761 23.9021 57.1401 23.6701 57.7961 23.2061C58.4521 22.7261 58.8841 22.0621 59.0921 21.2141H62.6441C62.3241 22.9581 61.5161 24.3261 60.2201 25.3181C58.9241 26.3101 57.2601 26.8061 55.2281 26.8061ZM71.1469 26.8061C69.9309 26.8061 68.8509 26.5501 67.9069 26.0381C66.9789 25.5101 66.2509 24.7821 65.7229 23.8541C65.2109 22.9101 64.9549 21.8221 64.9549 20.5901C64.9549 19.3261 65.2109 18.2141 65.7229 17.2541C66.2509 16.2781 66.9789 15.5181 67.9069 14.9741C68.8349 14.4141 69.9149 14.1341 71.1469 14.1341C72.3469 14.1341 73.3949 14.3981 74.2909 14.9261C75.1869 15.4541 75.8829 16.1661 76.3789 17.0621C76.8749 17.9581 77.1229 18.9741 77.1229 20.1101C77.1229 20.2701 77.1229 20.4541 77.1229 20.6621C77.1229 20.8541 77.1069 21.0541 77.0749 21.2621H67.2589V19.2941H73.8589C73.8109 18.5101 73.5309 17.8941 73.0189 17.4461C72.5229 16.9981 71.8989 16.7741 71.1469 16.7741C70.6029 16.7741 70.0989 16.9021 69.6349 17.1581C69.1709 17.3981 68.8029 17.7741 68.5309 18.2861C68.2749 18.7981 68.1469 19.4461 68.1469 20.2301V20.9261C68.1469 21.5821 68.2669 22.1581 68.5069 22.6541C68.7629 23.1341 69.1149 23.5101 69.5629 23.7821C70.0109 24.0381 70.5309 24.1661 71.1229 24.1661C71.7149 24.1661 72.2029 24.0381 72.5869 23.7821C72.9869 23.5261 73.2829 23.1981 73.4749 22.7981H76.7869C76.5629 23.5501 76.1869 24.2301 75.6589 24.8381C75.1309 25.4461 74.4829 25.9261 73.7149 26.2781C72.9469 26.6301 72.0909 26.8061 71.1469 26.8061ZM79.7764 26.5181V14.4221H82.6324L82.8724 16.3901C83.2404 15.7181 83.7604 15.1741 84.4324 14.7581C85.1204 14.3421 85.9364 14.1341 86.8804 14.1341C87.8884 14.1341 88.7364 14.3421 89.4244 14.7581C90.1124 15.1741 90.6324 15.7821 90.9844 16.5821C91.3524 17.3821 91.5364 18.3661 91.5364 19.5341V26.5181H88.3204V19.8461C88.3204 18.8861 88.1124 18.1501 87.6964 17.6381C87.2964 17.1261 86.6724 16.8701 85.8244 16.8701C85.2804 16.8701 84.7924 16.9981 84.3604 17.2541C83.9444 17.5101 83.6164 17.8781 83.3764 18.3581C83.1364 18.8221 83.0164 19.3901 83.0164 20.0621V26.5181H79.7764ZM100.037 26.5181C99.1889 26.5181 98.4449 26.3901 97.8049 26.1341C97.1809 25.8621 96.6929 25.4221 96.3409 24.8141C95.9889 24.1901 95.8129 23.3421 95.8129 22.2701V17.1341H93.7489V14.4221H95.8129L96.1729 11.1341H99.0529V14.4221H102.245V17.1341H99.0529V22.3181C99.0529 22.8621 99.1729 23.2381 99.4129 23.4461C99.6529 23.6541 100.061 23.7581 100.637 23.7581H102.221V26.5181H100.037ZM104.972 26.5181V14.4221H107.852L108.164 16.6541C108.452 16.1261 108.812 15.6781 109.244 15.3101C109.692 14.9421 110.196 14.6541 110.756 14.4461C111.332 14.2381 111.964 14.1341 112.652 14.1341V17.5661H111.548C111.068 17.5661 110.62 17.6221 110.204 17.7341C109.804 17.8461 109.452 18.0301 109.148 18.2861C108.844 18.5261 108.612 18.8621 108.452 19.2941C108.292 19.7261 108.212 20.2701 108.212 20.9261V26.5181H104.972ZM118.872 26.8061C117.864 26.8061 117.032 26.6461 116.376 26.3261C115.72 25.9901 115.232 25.5501 114.912 25.0061C114.608 24.4461 114.456 23.8301 114.456 23.1581C114.456 22.4221 114.64 21.7741 115.008 21.2141C115.392 20.6541 115.96 20.2141 116.712 19.8941C117.48 19.5741 118.44 19.4141 119.592 19.4141H122.592C122.592 18.8221 122.512 18.3341 122.352 17.9501C122.192 17.5501 121.944 17.2541 121.608 17.0621C121.272 16.8701 120.824 16.7741 120.264 16.7741C119.656 16.7741 119.136 16.9101 118.704 17.1821C118.288 17.4381 118.032 17.8381 117.936 18.3821H114.792C114.872 17.5181 115.152 16.7741 115.632 16.1501C116.128 15.5101 116.776 15.0141 117.576 14.6621C118.392 14.3101 119.296 14.1341 120.288 14.1341C121.424 14.1341 122.408 14.3261 123.24 14.7101C124.072 15.0941 124.712 15.6461 125.16 16.3661C125.608 17.0861 125.832 17.9741 125.832 19.0301V26.5181H123.096L122.736 24.6701C122.56 24.9901 122.352 25.2781 122.112 25.5341C121.872 25.7901 121.592 26.0141 121.272 26.2061C120.952 26.3981 120.592 26.5421 120.192 26.6381C119.792 26.7501 119.352 26.8061 118.872 26.8061ZM119.64 24.3101C120.056 24.3101 120.424 24.2381 120.744 24.0941C121.08 23.9341 121.368 23.7261 121.608 23.4701C121.848 23.1981 122.032 22.8941 122.16 22.5581C122.304 22.2061 122.4 21.8301 122.448 21.4301V21.4061H119.976C119.48 21.4061 119.072 21.4701 118.752 21.5981C118.448 21.7101 118.224 21.8781 118.08 22.1021C117.936 22.3261 117.864 22.5821 117.864 22.8701C117.864 23.1901 117.936 23.4541 118.08 23.6621C118.224 23.8701 118.432 24.0301 118.704 24.1421C118.976 24.2541 119.288 24.3101 119.64 24.3101ZM128.855 26.5181V9.23807H132.095V26.5181H128.855ZM135.325 26.5181V14.4221H138.565V26.5181H135.325ZM136.957 12.7661C136.381 12.7661 135.901 12.5981 135.517 12.2621C135.149 11.9101 134.965 11.4701 134.965 10.9421C134.965 10.4141 135.149 9.98207 135.517 9.64607C135.901 9.29407 136.381 9.11807 136.957 9.11807C137.549 9.11807 138.029 9.29407 138.397 9.64607C138.781 9.98207 138.973 10.4141 138.973 10.9421C138.973 11.4701 138.781 11.9101 138.397 12.2621C138.029 12.5981 137.549 12.7661 136.957 12.7661ZM141.839 26.5181V14.4221H144.695L144.935 16.3901C145.303 15.7181 145.823 15.1741 146.495 14.7581C147.183 14.3421 147.999 14.1341 148.943 14.1341C149.951 14.1341 150.799 14.3421 151.487 14.7581C152.175 15.1741 152.695 15.7821 153.047 16.5821C153.415 17.3821 153.599 18.3661 153.599 19.5341V26.5181H150.383V19.8461C150.383 18.8861 150.175 18.1501 149.759 17.6381C149.359 17.1261 148.735 16.8701 147.887 16.8701C147.343 16.8701 146.855 16.9981 146.423 17.2541C146.007 17.5101 145.679 17.8781 145.439 18.3581C145.199 18.8221 145.079 19.3901 145.079 20.0621V26.5181H141.839ZM164.571 26.5181L159.411 19.8941L164.043 14.4221H167.859L161.883 21.2621V18.6941L168.603 26.5181H164.571ZM156.651 26.5181V9.23807H159.891V26.5181H156.651Z" fill="#7D67FF"/>
</svg>
